<svg width="32" height="32" viewBox="0 0 32 32" fill="none" xmlns="http://www.w3.org/2000/svg">
<path fill-rule="evenodd" clip-rule="evenodd" d="M2.66666 15.9998C2.66666 15.2635 3.26361 14.6665 3.99999 14.6665H28C28.7364 14.6665 29.3333 15.2635 29.3333 15.9998C29.3333 16.7362 28.7364 17.3332 28 17.3332H3.99999C3.26361 17.3332 2.66666 16.7362 2.66666 15.9998Z" fill="#363636"/>
<path fill-rule="evenodd" clip-rule="evenodd" d="M2.66666 7.99984C2.66666 7.26346 3.26361 6.6665 3.99999 6.6665H28C28.7364 6.6665 29.3333 7.26346 29.3333 7.99984C29.3333 8.73622 28.7364 9.33317 28 9.33317H3.99999C3.26361 9.33317 2.66666 8.73622 2.66666 7.99984Z" fill="#363636"/>
<path fill-rule="evenodd" clip-rule="evenodd" d="M2.66666 23.9998C2.66666 23.2635 3.26361 22.6665 3.99999 22.6665H28C28.7364 22.6665 29.3333 23.2635 29.3333 23.9998C29.3333 24.7362 28.7364 25.3332 28 25.3332H3.99999C3.26361 25.3332 2.66666 24.7362 2.66666 23.9998Z" fill="#363636"/>
</svg>
