<svg width="20" height="20" viewBox="0 0 20 20" fill="none" xmlns="http://www.w3.org/2000/svg">
<path fill-rule="evenodd" clip-rule="evenodd" d="M2.08337 10.0002C2.08337 9.56294 2.43782 9.2085 2.87504 9.2085H17.125C17.5623 9.2085 17.9167 9.56294 17.9167 10.0002C17.9167 10.4374 17.5623 10.7918 17.125 10.7918H2.87504C2.43782 10.7918 2.08337 10.4374 2.08337 10.0002Z" fill="#A7A7A7"/>
<path fill-rule="evenodd" clip-rule="evenodd" d="M2.08337 5.25016C2.08337 4.81294 2.43782 4.4585 2.87504 4.4585H17.125C17.5623 4.4585 17.9167 4.81294 17.9167 5.25016C17.9167 5.68739 17.5623 6.04183 17.125 6.04183H2.87504C2.43782 6.04183 2.08337 5.68739 2.08337 5.25016Z" fill="#A7A7A7"/>
<path fill-rule="evenodd" clip-rule="evenodd" d="M2.08337 14.7502C2.08337 14.3129 2.43782 13.9585 2.87504 13.9585H17.125C17.5623 13.9585 17.9167 14.3129 17.9167 14.7502C17.9167 15.1874 17.5623 15.5418 17.125 15.5418H2.87504C2.43782 15.5418 2.08337 15.1874 2.08337 14.7502Z" fill="#A7A7A7"/>
</svg>
